<mxfile host="app.diagrams.net" agent="Mozilla/5.0 (Macintosh; Intel Mac OS X 10_15_7) AppleWebKit/605.1.15 (KHTML, like Gecko) Version/18.1.1 Safari/605.1.15" version="24.8.4" pages="6">
  <diagram name="Page-1" id="g44n4rZZkVy31TGQqA83">
    <mxGraphModel dx="530" dy="794" grid="1" gridSize="10" guides="1" tooltips="1" connect="1" arrows="1" fold="1" page="1" pageScale="1" pageWidth="850" pageHeight="1100" math="0" shadow="0">
      <root>
        <mxCell id="0" />
        <mxCell id="1" parent="0" />
        <mxCell id="LQ6FvdFZJ4_Q94rf2Tp3-1" value="BoardPosition" style="swimlane;fontStyle=0;childLayout=stackLayout;horizontal=1;startSize=26;fillColor=none;horizontalStack=0;resizeParent=1;resizeParentMax=0;resizeLast=0;collapsible=1;marginBottom=0;whiteSpace=wrap;html=1;" vertex="1" parent="1">
          <mxGeometry x="310" y="350" width="260" height="270" as="geometry" />
        </mxCell>
        <mxCell id="LQ6FvdFZJ4_Q94rf2Tp3-2" value="- row int" style="text;strokeColor=none;fillColor=none;align=left;verticalAlign=top;spacingLeft=4;spacingRight=4;overflow=hidden;rotatable=0;points=[[0,0.5],[1,0.5]];portConstraint=eastwest;whiteSpace=wrap;html=1;" vertex="1" parent="LQ6FvdFZJ4_Q94rf2Tp3-1">
          <mxGeometry y="26" width="260" height="24" as="geometry" />
        </mxCell>
        <mxCell id="LQ6FvdFZJ4_Q94rf2Tp3-3" value="- column: int" style="text;strokeColor=none;fillColor=none;align=left;verticalAlign=top;spacingLeft=4;spacingRight=4;overflow=hidden;rotatable=0;points=[[0,0.5],[1,0.5]];portConstraint=eastwest;whiteSpace=wrap;html=1;" vertex="1" parent="LQ6FvdFZJ4_Q94rf2Tp3-1">
          <mxGeometry y="50" width="260" height="26" as="geometry" />
        </mxCell>
        <mxCell id="LQ6FvdFZJ4_Q94rf2Tp3-5" value="" style="line;strokeWidth=1;fillColor=none;align=left;verticalAlign=middle;spacingTop=-1;spacingLeft=3;spacingRight=3;rotatable=0;labelPosition=right;points=[];portConstraint=eastwest;strokeColor=inherit;" vertex="1" parent="LQ6FvdFZJ4_Q94rf2Tp3-1">
          <mxGeometry y="76" width="260" height="8" as="geometry" />
        </mxCell>
        <mxCell id="LQ6FvdFZJ4_Q94rf2Tp3-4" value="+ BoardPosition(aRow: int, aCol: int)&lt;div&gt;+ getRow(): int&lt;/div&gt;&lt;div&gt;+ getColumn(): int&lt;/div&gt;&lt;div&gt;+ equals(obj: Object): boolean&lt;/div&gt;&lt;div&gt;+ toString(): String&lt;/div&gt;" style="text;strokeColor=none;fillColor=none;align=left;verticalAlign=top;spacingLeft=4;spacingRight=4;overflow=hidden;rotatable=0;points=[[0,0.5],[1,0.5]];portConstraint=eastwest;whiteSpace=wrap;html=1;" vertex="1" parent="LQ6FvdFZJ4_Q94rf2Tp3-1">
          <mxGeometry y="84" width="260" height="186" as="geometry" />
        </mxCell>
      </root>
    </mxGraphModel>
  </diagram>
  <diagram id="ZN0CxQCkwE1coRXel96p" name="Page-2">
    <mxGraphModel dx="403" dy="794" grid="1" gridSize="10" guides="1" tooltips="1" connect="1" arrows="1" fold="1" page="1" pageScale="1" pageWidth="850" pageHeight="1100" math="0" shadow="0">
      <root>
        <mxCell id="0" />
        <mxCell id="1" parent="0" />
        <mxCell id="ZCXEanizW5owEIGL6Djh-1" value="CheckerBoard" style="swimlane;fontStyle=1;align=center;verticalAlign=top;childLayout=stackLayout;horizontal=1;startSize=26;horizontalStack=0;resizeParent=1;resizeParentMax=0;resizeLast=0;collapsible=1;marginBottom=0;whiteSpace=wrap;html=1;" parent="1" vertex="1">
          <mxGeometry x="200" y="350" width="330" height="530" as="geometry" />
        </mxCell>
        <mxCell id="ZCXEanizW5owEIGL6Djh-2" value="- board: char [] []&lt;div&gt;- pieceCount: HashMap&amp;lt;Character, Integer&amp;gt;&lt;/div&gt;&lt;div&gt;- viableDirections: HashMap&amp;lt;Character, ArrayList&amp;lt;DirectionEnum&amp;gt;&lt;/div&gt;&lt;div&gt;+ PLAYER_ONE: char&lt;/div&gt;&lt;div&gt;+ PLAYER_TWO: char&lt;/div&gt;&lt;div&gt;+ BLACK_TILE: char&lt;/div&gt;&lt;div&gt;+ ROW_NUM: int&lt;/div&gt;&lt;div&gt;+ EMPTY_POS: char&lt;/div&gt;&lt;div&gt;+ COL_NUM: int&lt;/div&gt;&lt;div&gt;+ STARTING_COUNT: int&lt;/div&gt;&lt;div&gt;&lt;br&gt;&lt;/div&gt;&lt;div&gt;&lt;br&gt;&lt;div&gt;&lt;br&gt;&lt;/div&gt;&lt;/div&gt;" style="text;strokeColor=none;fillColor=none;align=left;verticalAlign=top;spacingLeft=4;spacingRight=4;overflow=hidden;rotatable=0;points=[[0,0.5],[1,0.5]];portConstraint=eastwest;whiteSpace=wrap;html=1;" parent="ZCXEanizW5owEIGL6Djh-1" vertex="1">
          <mxGeometry y="26" width="330" height="194" as="geometry" />
        </mxCell>
        <mxCell id="ZCXEanizW5owEIGL6Djh-4" value="&lt;div&gt;+ CheckerBoard()&lt;/div&gt;&lt;div&gt;+getViableDirections(): HashMap &amp;lt;Character. ArrayList&amp;lt;DirectionEnum&amp;gt;&amp;gt;&lt;/div&gt;&lt;div&gt;+getPieceCounts(): HashMap&amp;lt;Character, Integer&amp;gt;&lt;/div&gt;&lt;div&gt;+ placePiece(pos: BoardPosition, player: char): void&lt;/div&gt;&lt;div&gt;+ whatsAtPos(pos: BoardPosition): char&lt;/div&gt;&lt;div&gt;+ toString(): String&lt;/div&gt;&lt;div&gt;&lt;br&gt;&lt;/div&gt;" style="text;strokeColor=none;fillColor=none;align=left;verticalAlign=top;spacingLeft=4;spacingRight=4;overflow=hidden;rotatable=0;points=[[0,0.5],[1,0.5]];portConstraint=eastwest;whiteSpace=wrap;html=1;" parent="ZCXEanizW5owEIGL6Djh-1" vertex="1">
          <mxGeometry y="220" width="330" height="310" as="geometry" />
        </mxCell>
        <mxCell id="ZCXEanizW5owEIGL6Djh-9" value="" style="line;strokeWidth=1;fillColor=none;align=left;verticalAlign=middle;spacingTop=-1;spacingLeft=3;spacingRight=3;rotatable=0;labelPosition=right;points=[];portConstraint=eastwest;strokeColor=inherit;" parent="1" vertex="1">
          <mxGeometry x="200" y="240" width="330" height="620" as="geometry" />
        </mxCell>
      </root>
    </mxGraphModel>
  </diagram>
  <diagram id="Dqsz-seiW-IZBtn73AEg" name="Page-3">
    <mxGraphModel dx="624" dy="934" grid="1" gridSize="10" guides="1" tooltips="1" connect="1" arrows="1" fold="1" page="1" pageScale="1" pageWidth="850" pageHeight="1100" math="0" shadow="0">
      <root>
        <mxCell id="0" />
        <mxCell id="1" parent="0" />
        <mxCell id="DJjAxCmrSHBRIT9ewoYJ-5" value="CheckersFE" style="swimlane;fontStyle=0;childLayout=stackLayout;horizontal=1;startSize=26;fillColor=none;horizontalStack=0;resizeParent=1;resizeParentMax=0;resizeLast=0;collapsible=1;marginBottom=0;whiteSpace=wrap;html=1;" vertex="1" parent="1">
          <mxGeometry x="210" y="360" width="250" height="110" as="geometry" />
        </mxCell>
        <mxCell id="DJjAxCmrSHBRIT9ewoYJ-9" value="" style="line;strokeWidth=1;fillColor=none;align=left;verticalAlign=middle;spacingTop=-1;spacingLeft=3;spacingRight=3;rotatable=0;labelPosition=right;points=[];portConstraint=eastwest;strokeColor=inherit;" vertex="1" parent="DJjAxCmrSHBRIT9ewoYJ-5">
          <mxGeometry y="26" width="250" height="44" as="geometry" />
        </mxCell>
        <mxCell id="DJjAxCmrSHBRIT9ewoYJ-6" value="+ main(args: String[]): void" style="text;strokeColor=none;fillColor=none;align=left;verticalAlign=top;spacingLeft=4;spacingRight=4;overflow=hidden;rotatable=0;points=[[0,0.5],[1,0.5]];portConstraint=eastwest;whiteSpace=wrap;html=1;" vertex="1" parent="DJjAxCmrSHBRIT9ewoYJ-5">
          <mxGeometry y="70" width="250" height="40" as="geometry" />
        </mxCell>
      </root>
    </mxGraphModel>
  </diagram>
  <diagram id="tM0-DmAnnpp_Ys7D2Nm2" name="Page-4">
    <mxGraphModel dx="1456" dy="934" grid="1" gridSize="10" guides="1" tooltips="1" connect="1" arrows="1" fold="1" page="1" pageScale="1" pageWidth="850" pageHeight="1100" math="0" shadow="0">
      <root>
        <mxCell id="0" />
        <mxCell id="1" parent="0" />
        <mxCell id="fUfJk8o_why11JhzxCia-1" value="DirectionsEnum" style="swimlane;fontStyle=0;childLayout=stackLayout;horizontal=1;startSize=26;fillColor=none;horizontalStack=0;resizeParent=1;resizeParentMax=0;resizeLast=0;collapsible=1;marginBottom=0;whiteSpace=wrap;html=1;" vertex="1" parent="1">
          <mxGeometry x="210" y="360" width="140" height="120" as="geometry" />
        </mxCell>
        <mxCell id="fUfJk8o_why11JhzxCia-2" value="NE" style="text;strokeColor=none;fillColor=none;align=left;verticalAlign=top;spacingLeft=4;spacingRight=4;overflow=hidden;rotatable=0;points=[[0,0.5],[1,0.5]];portConstraint=eastwest;whiteSpace=wrap;html=1;" vertex="1" parent="fUfJk8o_why11JhzxCia-1">
          <mxGeometry y="26" width="140" height="26" as="geometry" />
        </mxCell>
        <mxCell id="fUfJk8o_why11JhzxCia-3" value="NW" style="text;strokeColor=none;fillColor=none;align=left;verticalAlign=top;spacingLeft=4;spacingRight=4;overflow=hidden;rotatable=0;points=[[0,0.5],[1,0.5]];portConstraint=eastwest;whiteSpace=wrap;html=1;" vertex="1" parent="fUfJk8o_why11JhzxCia-1">
          <mxGeometry y="52" width="140" height="26" as="geometry" />
        </mxCell>
        <mxCell id="fUfJk8o_why11JhzxCia-4" value="SE&lt;div&gt;SW&lt;/div&gt;" style="text;strokeColor=none;fillColor=none;align=left;verticalAlign=top;spacingLeft=4;spacingRight=4;overflow=hidden;rotatable=0;points=[[0,0.5],[1,0.5]];portConstraint=eastwest;whiteSpace=wrap;html=1;" vertex="1" parent="fUfJk8o_why11JhzxCia-1">
          <mxGeometry y="78" width="140" height="42" as="geometry" />
        </mxCell>
      </root>
    </mxGraphModel>
  </diagram>
  <diagram id="c-RSacwmNIZPdYNYaa7g" name="Page-5">
    <mxGraphModel dx="1029" dy="787" grid="1" gridSize="10" guides="1" tooltips="1" connect="1" arrows="1" fold="1" page="1" pageScale="1" pageWidth="850" pageHeight="1100" math="0" shadow="0">
      <root>
        <mxCell id="0" />
        <mxCell id="1" parent="0" />
        <mxCell id="qhplNJlE1cEnMtEa6AL8-1" value="AbsCheckerBoard" style="swimlane;fontStyle=0;childLayout=stackLayout;horizontal=1;startSize=30;fillColor=none;horizontalStack=0;resizeParent=1;resizeParentMax=0;resizeLast=0;collapsible=1;marginBottom=0;whiteSpace=wrap;html=1;" parent="1" vertex="1">
          <mxGeometry x="210" y="290" width="440" height="90" as="geometry">
            <mxRectangle x="210" y="290" width="140" height="30" as="alternateBounds" />
          </mxGeometry>
        </mxCell>
        <mxCell id="qhplNJlE1cEnMtEa6AL8-2" value="&lt;div&gt;+ to String(): String&lt;/div&gt;&lt;div&gt;&lt;br&gt;&lt;/div&gt;" style="text;strokeColor=none;fillColor=none;align=left;verticalAlign=top;spacingLeft=4;spacingRight=4;overflow=hidden;rotatable=0;points=[[0,0.5],[1,0.5]];portConstraint=eastwest;whiteSpace=wrap;html=1;" parent="qhplNJlE1cEnMtEa6AL8-1" vertex="1">
          <mxGeometry y="30" width="440" height="60" as="geometry" />
        </mxCell>
      </root>
    </mxGraphModel>
  </diagram>
  <diagram id="aaaMMO0jrPz9W70ScSbg" name="Page-6">
    <mxGraphModel dx="984" dy="787" grid="1" gridSize="10" guides="1" tooltips="1" connect="1" arrows="1" fold="1" page="1" pageScale="1" pageWidth="850" pageHeight="1100" math="0" shadow="0">
      <root>
        <mxCell id="0" />
        <mxCell id="1" parent="0" />
        <mxCell id="SUCX0-C3QhM_0REPdPSx-1" value="ICheckerBoard" style="swimlane;fontStyle=1;align=center;verticalAlign=top;childLayout=stackLayout;horizontal=1;startSize=26;horizontalStack=0;resizeParent=1;resizeParentMax=0;resizeLast=0;collapsible=1;marginBottom=0;whiteSpace=wrap;html=1;" parent="1" vertex="1">
          <mxGeometry x="230" y="230" width="550" height="390" as="geometry" />
        </mxCell>
        <mxCell id="SUCX0-C3QhM_0REPdPSx-2" value="+&amp;nbsp;BOARD_DIMENSION:&amp;nbsp;int&lt;div&gt;+ FIRST_ROW:&amp;nbsp;int&lt;/div&gt;&lt;div&gt;+ LAST_ROW:&amp;nbsp;int&amp;nbsp;= int&lt;/div&gt;&lt;div&gt;+ JUMP_DISTANCE:&amp;nbsp;int&amp;nbsp;&lt;/div&gt;&lt;div&gt;+ ONE_ROW_UP:&amp;nbsp;int&amp;nbsp;&lt;/div&gt;&lt;div&gt;+ ONE_ROW_DOWN:&amp;nbsp;int&amp;nbsp;&lt;/div&gt;&lt;div&gt;+ ONE_COLUMN_LEFT:&amp;nbsp;int&amp;nbsp;&lt;/div&gt;&lt;div&gt;+ ONE_COLUMN_RIGHT:&amp;nbsp;int&lt;/div&gt;&lt;div&gt;+ NO_PIECES_LEFT:&amp;nbsp;int&amp;nbsp;&lt;/div&gt;&lt;div&gt;&lt;span style=&quot;background-color: initial;&quot;&gt;+ EMPTY_SPACE:&amp;nbsp;&lt;/span&gt;&lt;span style=&quot;background-color: initial;&quot;&gt;char&lt;/span&gt;&amp;nbsp;&lt;br&gt;&lt;div&gt;&lt;br&gt;&lt;/div&gt;&lt;/div&gt;" style="text;strokeColor=none;fillColor=none;align=left;verticalAlign=top;spacingLeft=4;spacingRight=4;overflow=hidden;rotatable=0;points=[[0,0.5],[1,0.5]];portConstraint=eastwest;whiteSpace=wrap;html=1;" parent="SUCX0-C3QhM_0REPdPSx-1" vertex="1">
          <mxGeometry y="26" width="550" height="164" as="geometry" />
        </mxCell>
        <mxCell id="SUCX0-C3QhM_0REPdPSx-3" value="" style="line;strokeWidth=1;fillColor=none;align=left;verticalAlign=middle;spacingTop=-1;spacingLeft=3;spacingRight=3;rotatable=0;labelPosition=right;points=[];portConstraint=eastwest;strokeColor=inherit;" parent="SUCX0-C3QhM_0REPdPSx-1" vertex="1">
          <mxGeometry y="190" width="550" height="8" as="geometry" />
        </mxCell>
        <mxCell id="SUCX0-C3QhM_0REPdPSx-4" value="&lt;div&gt;+ getViableDirections():&amp;nbsp;HashMap&amp;lt;Character,&amp;nbsp;&lt;span style=&quot;background-color: initial;&quot;&gt;ArrayList&amp;lt;DirectionEnum&amp;gt;&amp;gt;&lt;/span&gt;&lt;/div&gt;&lt;div&gt;+ getPieceCounts():&amp;nbsp;HashMap&amp;lt;Character,&amp;nbsp;Integer&amp;gt;&lt;/div&gt;&lt;div&gt;+ placePiece(pos:&amp;nbsp;BoardPosition,&amp;nbsp;player:&amp;nbsp;char):&amp;nbsp;void&lt;/div&gt;&lt;div&gt;+ whatsAtPos(pos:&amp;nbsp;BoardPosition):&amp;nbsp;char&lt;/div&gt;&lt;div&gt;+ crownPiece(posOfPlayer:&amp;nbsp;BoardPosition):&amp;nbsp;void&amp;nbsp;&lt;/div&gt;&lt;div&gt;+ movePiece(startingPos:&amp;nbsp;BoardPosition,&amp;nbsp;dir:&amp;nbsp;&lt;span style=&quot;background-color: initial;&quot;&gt;DirectionEnum):&amp;nbsp;&lt;/span&gt;&lt;span style=&quot;background-color: initial;&quot;&gt;BoardPosition&lt;/span&gt;&lt;/div&gt;&lt;div&gt;+ jumpPiece(startingPos:&amp;nbsp;BoardPosition,&amp;nbsp;dir:&amp;nbsp;&lt;span style=&quot;background-color: initial;&quot;&gt;DirectionEnum):&amp;nbsp;&lt;/span&gt;&lt;span style=&quot;background-color: initial;&quot;&gt;BoardPosition&lt;/span&gt;&lt;/div&gt;&lt;div&gt;+ checkPlayerWin(player:&amp;nbsp;Character):&amp;nbsp;boolean&lt;/div&gt;&lt;div&gt;+ scanSurroundingPositions(startingPos:&amp;nbsp;BoardPosition):&amp;nbsp;&lt;span style=&quot;background-color: initial;&quot;&gt;HashMap&amp;lt;DirectionEnum,&amp;nbsp;&lt;/span&gt;&lt;span style=&quot;background-color: initial;&quot;&gt;Character&amp;gt;&lt;/span&gt;&lt;/div&gt;&lt;div&gt;+ {static} getDirection(dir:&amp;nbsp;DirectionEnum):&amp;nbsp;BoardPosition&lt;span style=&quot;background-color: initial;&quot;&gt;&lt;/span&gt;&lt;/div&gt;&lt;div&gt;&lt;br&gt;&lt;/div&gt;&lt;div&gt;&lt;br&gt;&lt;/div&gt;" style="text;strokeColor=none;fillColor=none;align=left;verticalAlign=top;spacingLeft=4;spacingRight=4;overflow=hidden;rotatable=0;points=[[0,0.5],[1,0.5]];portConstraint=eastwest;whiteSpace=wrap;html=1;" parent="SUCX0-C3QhM_0REPdPSx-1" vertex="1">
          <mxGeometry y="198" width="550" height="192" as="geometry" />
        </mxCell>
      </root>
    </mxGraphModel>
  </diagram>
</mxfile>
